<svg id="Layer_1" data-name="Layer 1" xmlns="http://www.w3.org/2000/svg" viewBox="0 0 499.5 501.06"><defs><style>.cls-1{fill:#1268b2;}.cls-2{fill:#7f7f7f;}.cls-3{fill:#4c89bf;}.cls-4{fill:#4b8ac9;}.cls-5{fill:#75b3e2;}.cls-6{fill:#0c4b7f;}.cls-7{fill:#fff;}.cls-8{fill:#0b1e2a;}</style></defs><title>Master Logo</title><path class="cls-1" d="M140.9,348" transform="translate(-33.79 -28.68)"/><path class="cls-1" d="M164.19,492.45h-58v-56a65.19,65.19,0,1,1,58,0Zm-50.82-7.19H157V431.85l2.11-1a58,58,0,1,0-47.85,0l2.11,1Z" transform="translate(-33.79 -28.68)"/><path class="cls-1" d="M164.19,492.45h-58v-31.5h58Zm-50.82-7.19H157V468.13H113.37Z" transform="translate(-33.79 -28.68)"/><path class="cls-1" d="M135.19,468.13a3.59,3.59,0,0,1-3.59-3.59V405.48l-12.91-3.15a3.59,3.59,0,0,1,.14-7l18.29-3.72-18.55-5.22a3.59,3.59,0,0,1-1.31-6.24l15.66-12.83a3.59,3.59,0,0,1,4.56,5.56l-10.32,8.46,26.21,7.37a3.59,3.59,0,0,1-.26,7L136,399.15h0a3.59,3.59,0,0,1,2.74,3.49v61.89A3.59,3.59,0,0,1,135.19,468.13Z" transform="translate(-33.79 -28.68)"/><path class="cls-1" d="M230.94,423.49H203.43l16.68-80.14H197.8l4.86-22.73H275l-5,22.73H247.62Z" transform="translate(-33.79 -28.68)"/><path class="cls-1" d="M258.43,423.49l21.74-102.87H308.1L286.36,423.49Z" transform="translate(-33.79 -28.68)"/><path class="cls-1" d="M345.87,363.26h42.92L377,419.2a118.19,118.19,0,0,1-36.66,5.7q-18.36,0-28.5-10.7t-10.13-30.33A73.36,73.36,0,0,1,309.49,350a55,55,0,0,1,21.21-23Q344.18,319,362,319q18.72,0,31.52,7.53l-10.34,21.74q-10.77-6.33-21.53-6.33a27.55,27.55,0,0,0-16.43,5.1q-7.14,5.1-11.4,15.09a53.82,53.82,0,0,0-4.26,21.32q0,18.58,14.71,18.58a47.73,47.73,0,0,0,9.36-1l3.59-16.32H341.15Z" transform="translate(-33.79 -28.68)"/><path class="cls-1" d="M448.21,404.21H416.69l-8.8,19.28H379.33l52.35-102.87h35.39l8.66,102.87H448.92Zm-21.46-22h20.62l-1.2-29.83-.14-6.05q0-5.28.28-9.22A76.92,76.92,0,0,1,442,348.84Z" transform="translate(-33.79 -28.68)"/><path class="cls-1" d="M207.94,444.11a12.4,12.4,0,0,0-8.49,3.4,22.59,22.59,0,0,0-5.94,9.36,37.81,37.81,0,0,0-2.16,12.93q0,5.84,2.44,8.71a8.68,8.68,0,0,0,7,2.87,31.14,31.14,0,0,0,7.32-.89,56.75,56.75,0,0,0,8.71-3v14.07a46.74,46.74,0,0,1-19.16,3.92q-11.32,0-17.44-6.47t-6.12-18.31a50.49,50.49,0,0,1,4.42-21.25q4.42-9.67,12-14.59a31.29,31.29,0,0,1,17.4-4.92,39.61,39.61,0,0,1,20.95,5.71l-6.45,13.28a43.06,43.06,0,0,0-7.45-3.59A21.07,21.07,0,0,0,207.94,444.11Z" transform="translate(-33.79 -28.68)"/><path class="cls-1" d="M261.33,482.66H241.82l-5.44,11.93H218.69l32.4-63.67H273l5.36,63.67H261.77ZM248,469.07h12.76l-.74-18.47-.09-3.75q0-3.27.17-5.71a47.82,47.82,0,0,1-2.66,7.23Z" transform="translate(-33.79 -28.68)"/><path class="cls-1" d="M332.21,494.59h-17l5.44-26H305.56l-5.53,26H283l13.46-63.67h17l-4.88,23.6h15.16l4.88-23.6h17.07Z" transform="translate(-33.79 -28.68)"/><path class="cls-1" d="M378.14,482.66H358.63l-5.44,11.93H335.51l32.4-63.67h21.91l5.36,63.67H378.58Zm-13.28-13.59h12.76l-.74-18.47-.09-3.75q0-3.27.17-5.71a47.82,47.82,0,0,1-2.66,7.23Z" transform="translate(-33.79 -28.68)"/><path class="cls-1" d="M415.39,454.52,429,430.92h19l-26.65,39L416,494.59H399l5.23-24.69-10.32-39h17.55Z" transform="translate(-33.79 -28.68)"/><path class="cls-1" d="M463.75,482.66H444.24l-5.44,11.93H421.11l32.4-63.67h21.91l5.36,63.67H464.18Zm-13.28-13.59h12.76l-.74-18.47-.09-3.75q0-3.27.18-5.71a47.83,47.83,0,0,1-2.66,7.23Z" transform="translate(-33.79 -28.68)"/><path class="cls-1" d="M489.26,529.74H77.67A34.78,34.78,0,0,1,42.93,495V323a34.78,34.78,0,0,1,34.74-34.74H489.26A34.78,34.78,0,0,1,524,323V495A34.78,34.78,0,0,1,489.26,529.74ZM77.67,296.35A26.69,26.69,0,0,0,51,323V495a26.69,26.69,0,0,0,26.66,26.66H489.26A26.69,26.69,0,0,0,515.92,495V323a26.69,26.69,0,0,0-26.66-26.66Z" transform="translate(-33.79 -28.68)"/><path class="cls-1" d="M210.1,272.33l-8.81-23h-.14q.25,2.74.25,6.5v16.53H198.6v-26h4.55l8.23,21.43h.14l8.3-21.43h4.51v26h-3V255.59q0-2.88.25-6.25h-.14l-8.88,23Z" transform="translate(-33.79 -28.68)"/><path class="cls-1" d="M243,272.33l-.59-2.77h-.14a8.2,8.2,0,0,1-2.91,2.48,8.86,8.86,0,0,1-3.62.65,6.5,6.5,0,0,1-4.54-1.49,5.44,5.44,0,0,1-1.64-4.25q0-5.9,9.44-6.18l3.3-.11v-1.21a4.94,4.94,0,0,0-1-3.38,4.06,4.06,0,0,0-3.15-1.09,12.85,12.85,0,0,0-5.51,1.49l-.91-2.26a13.84,13.84,0,0,1,3.15-1.23,13.67,13.67,0,0,1,3.44-.44q3.48,0,5.16,1.55t1.68,5v13.29Zm-6.66-2.08a6,6,0,0,0,4.33-1.51,5.59,5.59,0,0,0,1.57-4.23v-1.76l-2.95.12A10.73,10.73,0,0,0,234.2,264a3.3,3.3,0,0,0-1.55,3,3,3,0,0,0,1,2.43A4,4,0,0,0,236.32,270.25Z" transform="translate(-33.79 -28.68)"/><path class="cls-1" d="M251,247.57a2,2,0,0,1,.5-1.48,1.84,1.84,0,0,1,2.47,0,1.92,1.92,0,0,1,.52,1.48,2,2,0,0,1-.52,1.48,1.72,1.72,0,0,1-1.23.49,1.7,1.7,0,0,1-1.24-.49A2,2,0,0,1,251,247.57Zm3.2,24.75h-2.95V252.85h2.95Z" transform="translate(-33.79 -28.68)"/><path class="cls-1" d="M273.78,272.33v-12.6a5.09,5.09,0,0,0-1.08-3.55A4.42,4.42,0,0,0,269.3,255a5.6,5.6,0,0,0-4.48,1.65q-1.42,1.65-1.42,5.46v10.22h-2.95V252.85h2.4l.48,2.67h.14a6,6,0,0,1,2.54-2.23,8.25,8.25,0,0,1,3.64-.79,7.4,7.4,0,0,1,5.29,1.7q1.78,1.7,1.78,5.43v12.71Z" transform="translate(-33.79 -28.68)"/><path class="cls-1" d="M292.69,272.33v-26h3v23.24h11.46v2.74Z" transform="translate(-33.79 -28.68)"/><path class="cls-1" d="M327.94,262.57q0,4.76-2.4,7.44a8.45,8.45,0,0,1-6.63,2.67,8.78,8.78,0,0,1-4.64-1.23,8.09,8.09,0,0,1-3.13-3.52,12.26,12.26,0,0,1-1.1-5.37q0-4.76,2.38-7.42A8.42,8.42,0,0,1,319,252.5a8.24,8.24,0,0,1,6.49,2.72A10.7,10.7,0,0,1,327.94,262.57Zm-14.84,0a9.24,9.24,0,0,0,1.49,5.69,5.92,5.92,0,0,0,8.79,0,9.2,9.2,0,0,0,1.5-5.7,9,9,0,0,0-1.5-5.64A5.28,5.28,0,0,0,319,255a5.19,5.19,0,0,0-4.37,1.9A9.15,9.15,0,0,0,313.1,262.57Z" transform="translate(-33.79 -28.68)"/><path class="cls-1" d="M349.05,252.85v1.87l-3.61.43a6.35,6.35,0,0,1,1.28,3.89,5.76,5.76,0,0,1-2,4.57,7.88,7.88,0,0,1-5.37,1.71,8.9,8.9,0,0,1-1.63-.14,2.9,2.9,0,0,0-1.88,2.51,1.27,1.27,0,0,0,.66,1.18,4.8,4.8,0,0,0,2.26.38h3.45a7.72,7.72,0,0,1,4.86,1.33,4.63,4.63,0,0,1,1.7,3.87,5.53,5.53,0,0,1-2.59,4.93q-2.59,1.7-7.57,1.7a10.34,10.34,0,0,1-5.89-1.42,4.59,4.59,0,0,1-2.07-4,4.51,4.51,0,0,1,1.14-3.07,5.79,5.79,0,0,1,3.2-1.76,3.08,3.08,0,0,1-1.25-1,2.77,2.77,0,0,1-.51-1.65,3.13,3.13,0,0,1,.57-1.87,6,6,0,0,1,1.79-1.55,5.26,5.26,0,0,1-2.46-2.11,6.21,6.21,0,0,1-1-3.41,6.3,6.3,0,0,1,1.92-4.93,7.84,7.84,0,0,1,5.44-1.73,9.89,9.89,0,0,1,2.75.36ZM333.52,275.6a2.64,2.64,0,0,0,1.33,2.4,7.36,7.36,0,0,0,3.82.82,10.67,10.67,0,0,0,5.5-1.11,3.4,3.4,0,0,0,1.79-3,2.38,2.38,0,0,0-1-2.19,7.59,7.59,0,0,0-3.68-.61h-3.54a4.66,4.66,0,0,0-3.13,1A3.43,3.43,0,0,0,333.52,275.6Zm1.6-16.51a4,4,0,0,0,1.16,3.09,4.61,4.61,0,0,0,3.22,1q4.32,0,4.32-4.19,0-4.39-4.37-4.39a4.33,4.33,0,0,0-3.2,1.12A4.51,4.51,0,0,0,335.12,259.09Z" transform="translate(-33.79 -28.68)"/><path class="cls-1" d="M369.86,262.57q0,4.76-2.4,7.44a8.45,8.45,0,0,1-6.63,2.67,8.78,8.78,0,0,1-4.64-1.23,8.09,8.09,0,0,1-3.13-3.52,12.26,12.26,0,0,1-1.1-5.37q0-4.76,2.38-7.42A8.42,8.42,0,0,1,361,252.5a8.24,8.24,0,0,1,6.5,2.72A10.7,10.7,0,0,1,369.86,262.57Zm-14.84,0a9.24,9.24,0,0,0,1.49,5.69,5.92,5.92,0,0,0,8.79,0,9.2,9.2,0,0,0,1.5-5.7,9,9,0,0,0-1.5-5.64,5.28,5.28,0,0,0-4.43-1.93,5.19,5.19,0,0,0-4.37,1.9A9.15,9.15,0,0,0,355,262.57Z" transform="translate(-33.79 -28.68)"/><path class="cls-1" d="M190.82,32.68a8.49,8.49,0,0,0-6.76,2.85,11.5,11.5,0,0,0-2.48,7.81q0,5.1,2.39,7.88A8.49,8.49,0,0,0,190.79,54a23.26,23.26,0,0,0,6.2-1v2.65a19.11,19.11,0,0,1-6.66,1q-5.74,0-8.86-3.48t-3.12-9.9a15.62,15.62,0,0,1,1.5-7,10.78,10.78,0,0,1,4.34-4.66A13.13,13.13,0,0,1,190.86,30,16.1,16.1,0,0,1,198,31.47l-1.28,2.59A13.77,13.77,0,0,0,190.82,32.68Z" transform="translate(-33.79 -28.68)"/><path class="cls-1" d="M219,46.57q0,4.76-2.4,7.44A8.45,8.45,0,0,1,210,56.68a8.78,8.78,0,0,1-4.64-1.23,8.09,8.09,0,0,1-3.13-3.52,12.26,12.26,0,0,1-1.1-5.37q0-4.76,2.38-7.42a8.42,8.42,0,0,1,6.61-2.66,8.24,8.24,0,0,1,6.49,2.72A10.7,10.7,0,0,1,219,46.57Zm-14.84,0a9.24,9.24,0,0,0,1.49,5.69,5.92,5.92,0,0,0,8.79,0,9.2,9.2,0,0,0,1.5-5.7,9,9,0,0,0-1.5-5.64A5.28,5.28,0,0,0,210,39a5.19,5.19,0,0,0-4.37,1.9A9.15,9.15,0,0,0,204.19,46.57Z" transform="translate(-33.79 -28.68)"/><path class="cls-1" d="M227.15,56.33H224.2V28.68h2.95Z" transform="translate(-33.79 -28.68)"/><path class="cls-1" d="M250.21,46.57q0,4.76-2.4,7.44a8.45,8.45,0,0,1-6.63,2.67,8.78,8.78,0,0,1-4.64-1.23,8.09,8.09,0,0,1-3.13-3.52,12.26,12.26,0,0,1-1.1-5.37q0-4.76,2.38-7.42a8.42,8.42,0,0,1,6.61-2.66,8.24,8.24,0,0,1,6.49,2.72A10.7,10.7,0,0,1,250.21,46.57Zm-14.84,0a9.24,9.24,0,0,0,1.49,5.69,5.92,5.92,0,0,0,8.79,0,9.2,9.2,0,0,0,1.5-5.7,9,9,0,0,0-1.5-5.64A5.28,5.28,0,0,0,241.22,39a5.19,5.19,0,0,0-4.37,1.9A9.15,9.15,0,0,0,235.37,46.57Z" transform="translate(-33.79 -28.68)"/><path class="cls-1" d="M264.27,36.5a11.55,11.55,0,0,1,2.33.21l-.41,2.74a10,10,0,0,0-2.13-.27,5.19,5.19,0,0,0-4,1.92,7,7,0,0,0-1.68,4.78V56.33h-2.95V36.85h2.43l.34,3.61h.14a8.56,8.56,0,0,1,2.61-2.93A5.88,5.88,0,0,1,264.27,36.5Z" transform="translate(-33.79 -28.68)"/><path class="cls-1" d="M296.61,37.92A7.28,7.28,0,0,1,293.91,44q-2.69,2.12-7.7,2.12h-3.06V56.33h-3v-26h6.73Q296.61,30.35,296.61,37.92Zm-13.45,5.6h2.72q4,0,5.81-1.3a4.78,4.78,0,0,0,1.79-4.16,4.48,4.48,0,0,0-1.69-3.84A8.82,8.82,0,0,0,286.53,33h-3.38Z" transform="translate(-33.79 -28.68)"/><path class="cls-1" d="M313.57,56.33,313,53.56h-.14A8.2,8.2,0,0,1,309.94,56a8.86,8.86,0,0,1-3.62.65,6.5,6.5,0,0,1-4.54-1.49,5.44,5.44,0,0,1-1.64-4.25q0-5.9,9.44-6.18l3.3-.11V43.44a4.94,4.94,0,0,0-1-3.38A4.06,4.06,0,0,0,308.74,39a12.85,12.85,0,0,0-5.51,1.49l-.91-2.26A13.84,13.84,0,0,1,305.48,37a13.67,13.67,0,0,1,3.44-.44q3.48,0,5.16,1.55t1.68,5V56.33Zm-6.66-2.08a6,6,0,0,0,4.33-1.51,5.59,5.59,0,0,0,1.57-4.23V46.75l-3,.12A10.73,10.73,0,0,0,304.79,48a3.3,3.3,0,0,0-1.55,3,3,3,0,0,0,1,2.43A4,4,0,0,0,306.91,54.25Z" transform="translate(-33.79 -28.68)"/><path class="cls-1" d="M324.79,56.33h-3V28.68h3Z" transform="translate(-33.79 -28.68)"/><path class="cls-1" d="M334,56.33H331V28.68H334Z" transform="translate(-33.79 -28.68)"/><path class="cls-1" d="M348.47,56.68a9,9,0,0,1-6.81-2.63,10.18,10.18,0,0,1-2.5-7.3,11.29,11.29,0,0,1,2.32-7.48,7.7,7.7,0,0,1,6.23-2.77,7.34,7.34,0,0,1,5.79,2.41,9.23,9.23,0,0,1,2.13,6.35v1.87H342.22A7.72,7.72,0,0,0,344,52.33a6,6,0,0,0,4.63,1.78,15.68,15.68,0,0,0,6.22-1.31v2.63a15.62,15.62,0,0,1-3,1A16.61,16.61,0,0,1,348.47,56.68ZM347.67,39a4.82,4.82,0,0,0-3.74,1.53,7,7,0,0,0-1.64,4.23h10.18a6.49,6.49,0,0,0-1.24-4.27A4.38,4.38,0,0,0,347.67,39Z" transform="translate(-33.79 -28.68)"/><path class="cls-1" d="M367,54.25a9.61,9.61,0,0,0,1.51-.12,9.75,9.75,0,0,0,1.16-.24v2.26a5.39,5.39,0,0,1-1.41.38,10.68,10.68,0,0,1-1.68.15q-5.65,0-5.65-6V39.14h-2.79V37.72l2.79-1.23,1.24-4.16h1.71v4.51h5.65v2.29h-5.65V50.61a3.94,3.94,0,0,0,.83,2.7A2.91,2.91,0,0,0,367,54.25Z" transform="translate(-33.79 -28.68)"/><path class="cls-1" d="M381.74,56.68a9,9,0,0,1-6.81-2.63,10.18,10.18,0,0,1-2.5-7.3,11.29,11.29,0,0,1,2.32-7.48A7.7,7.7,0,0,1,381,36.5a7.34,7.34,0,0,1,5.79,2.41,9.23,9.23,0,0,1,2.13,6.35v1.87H375.48a7.72,7.72,0,0,0,1.73,5.21,6,6,0,0,0,4.63,1.78,15.68,15.68,0,0,0,6.22-1.31v2.63a15.62,15.62,0,0,1-3,1A16.59,16.59,0,0,1,381.74,56.68ZM380.94,39a4.82,4.82,0,0,0-3.74,1.53,7,7,0,0,0-1.64,4.23h10.18a6.49,6.49,0,0,0-1.24-4.27A4.38,4.38,0,0,0,380.94,39Z" transform="translate(-33.79 -28.68)"/><rect class="cls-2" y="44.41" width="499.5" height="77"/><rect class="cls-1" x="144.53" y="47.84" width="70.14" height="70.14"/><rect class="cls-3" x="214.68" y="47.84" width="70.14" height="70.14"/><rect class="cls-4" x="284.82" y="47.84" width="70.14" height="70.14"/><rect class="cls-5" x="354.97" y="47.84" width="70.14" height="70.14"/><rect class="cls-6" x="74.39" y="47.84" width="70.14" height="70.14"/><rect class="cls-7" x="425.11" y="47.84" width="70.14" height="70.14"/><rect class="cls-8" x="4.24" y="47.84" width="70.14" height="70.14"/><path class="cls-1" d="M194,175.42c-.06-1.13-.13-2.48-.12-3.49h0c-.28.95-.61,2-1,3.07l-1.43,3.92h-.79l-1.31-3.85c-.38-1.14-.71-2.18-.94-3.14h0c0,1-.08,2.36-.16,3.57L188,179h-1l.56-8.08h1.33l1.38,3.91c.34,1,.61,1.88.82,2.72h0c.2-.82.49-1.7.85-2.72l1.44-3.91h1.33l.5,8.08h-1Z" transform="translate(-33.79 -28.68)"/><path class="cls-1" d="M200.13,179l-.08-.73h0a2.16,2.16,0,0,1-1.77.86,1.65,1.65,0,0,1-1.77-1.67c0-1.4,1.25-2.17,3.49-2.16v-.12a1.2,1.2,0,0,0-1.32-1.34,2.89,2.89,0,0,0-1.51.43l-.24-.7a3.6,3.6,0,0,1,1.91-.52c1.77,0,2.21,1.21,2.21,2.37v2.17a8.14,8.14,0,0,0,.1,1.39Zm-.16-3c-1.15,0-2.46.18-2.46,1.31a.93.93,0,0,0,1,1,1.44,1.44,0,0,0,1.4-1A1.11,1.11,0,0,0,200,177Z" transform="translate(-33.79 -28.68)"/><path class="cls-1" d="M203.88,171.53a.65.65,0,0,1-1.31,0,.64.64,0,0,1,.66-.66A.63.63,0,0,1,203.88,171.53ZM202.7,179v-5.8h1.06V179Z" transform="translate(-33.79 -28.68)"/><path class="cls-1" d="M205.51,174.74c0-.6,0-1.09,0-1.57h.94l.06,1h0A2.13,2.13,0,0,1,208.4,173c.8,0,2.05.48,2.05,2.47V179h-1.06v-3.35c0-.94-.35-1.71-1.34-1.71a1.5,1.5,0,0,0-1.42,1.08,1.52,1.52,0,0,0-.07.49V179h-1.06Z" transform="translate(-33.79 -28.68)"/><path class="cls-1" d="M220.4,178.71a5.18,5.18,0,0,1-2.13.38,3.78,3.78,0,0,1-4-4.09,4,4,0,0,1,4.22-4.25,4.33,4.33,0,0,1,1.92.36l-.25.85a3.81,3.81,0,0,0-1.63-.34,3,3,0,0,0-3.15,3.33,2.94,2.94,0,0,0,3.11,3.25,4.18,4.18,0,0,0,1.7-.34Z" transform="translate(-33.79 -28.68)"/><path class="cls-1" d="M226.79,176a2.84,2.84,0,0,1-2.89,3.08,2.76,2.76,0,0,1-2.78-3A2.83,2.83,0,0,1,224,173,2.75,2.75,0,0,1,226.79,176Zm-4.61.06c0,1.27.73,2.23,1.76,2.23s1.76-.95,1.76-2.25c0-1-.49-2.23-1.74-2.23S222.19,175,222.19,176.08Z" transform="translate(-33.79 -28.68)"/><path class="cls-1" d="M228.13,170.45h1.06V179h-1.06Z" transform="translate(-33.79 -28.68)"/><path class="cls-1" d="M236.21,176a2.84,2.84,0,0,1-2.89,3.08,2.76,2.76,0,0,1-2.78-3,2.83,2.83,0,0,1,2.88-3.08A2.75,2.75,0,0,1,236.21,176Zm-4.61.06c0,1.27.73,2.23,1.76,2.23s1.76-.95,1.76-2.25c0-1-.49-2.23-1.74-2.23S231.61,175,231.61,176.08Z" transform="translate(-33.79 -28.68)"/><path class="cls-1" d="M237.55,175c0-.68,0-1.27,0-1.81h.92l0,1.14h0a1.74,1.74,0,0,1,1.61-1.27,1.15,1.15,0,0,1,.3,0v1a1.59,1.59,0,0,0-.36,0,1.48,1.48,0,0,0-1.42,1.36,3,3,0,0,0,0,.49V179h-1Z" transform="translate(-33.79 -28.68)"/><polygon class="cls-1" points="179.67 131.13 175.48 138.4 183.87 138.4 179.67 131.13"/></svg>